<?xml version="1.0" standalone="no"?>
<!DOCTYPE svg PUBLIC "-//W3C//DTD SVG 20010904//EN"
 "http://www.w3.org/TR/2001/REC-SVG-20010904/DTD/svg10.dtd">
<svg version="1.0" xmlns="http://www.w3.org/2000/svg"
 width="800.000000pt" height="1138.000000pt" viewBox="0 0 800.000000 1138.000000"
 preserveAspectRatio="xMidYMid meet">

<g transform="translate(0.000000,1138.000000) scale(0.100000,-0.100000)"
fill="#000000" stroke="none">
<path d="M3786 11355 c-274 -45 -520 -151 -750 -324 -391 -294 -668 -760 -766
-1286 -15 -86 -40 -291 -40 -337 0 -5 -387 -8 -860 -8 -944 0 -901 3 -954 -61
l-29 -34 7 -235 c4 -129 9 -266 12 -305 3 -38 54 -1160 114 -2493 82 -1806
114 -2440 125 -2489 38 -162 108 -286 224 -395 86 -81 175 -131 285 -160 67
-17 190 -18 2846 -18 2729 0 2778 0 2854 20 241 61 439 254 514 500 11 36 22
88 26 115 3 28 40 734 81 1570 41 836 77 1563 80 1615 3 52 12 235 20 405 8
171 17 353 20 405 3 52 12 230 20 395 8 165 22 444 31 620 20 396 18 454 -16
491 -52 56 -18 54 -949 54 l-860 0 -6 58 c-20 199 -29 259 -52 362 -89 406
-293 783 -571 1057 -241 237 -530 395 -851 464 -128 27 -425 35 -555 14z m519
-489 c453 -118 836 -539 970 -1065 30 -121 55 -275 55 -348 l0 -53 -1305 0
-1305 0 0 51 c0 68 26 245 51 344 143 564 561 996 1056 1090 123 23 351 14
478 -19z m-11 -2491 c220 -35 433 -102 631 -200 160 -80 254 -140 266 -172 11
-29 -3 -58 -93 -192 -74 -112 -88 -122 -126 -100 -287 171 -459 239 -722 285
-153 26 -397 25 -502 -4 -177 -48 -281 -105 -389 -213 -229 -227 -239 -548
-24 -777 139 -149 314 -243 707 -378 803 -276 1178 -555 1304 -969 25 -82 27
-105 28 -250 0 -180 -18 -281 -74 -421 -96 -241 -297 -454 -534 -569 -168 -81
-393 -138 -596 -151 -229 -14 -559 33 -808 115 -239 79 -389 156 -592 304
-121 89 -150 116 -150 141 0 21 168 272 192 287 26 17 48 8 140 -61 268 -199
540 -319 848 -371 280 -48 598 3 827 132 149 84 272 234 316 386 71 242 -25
497 -257 682 -147 117 -290 188 -561 281 -214 73 -630 237 -729 287 -120 60
-246 153 -352 258 -198 198 -284 399 -284 663 1 517 424 938 1025 1021 96 13
388 5 509 -14z"/>
<path d="M492 2486 c-41 -8 -112 -33 -159 -55 -187 -90 -296 -268 -279 -454
12 -133 73 -236 193 -326 77 -58 166 -97 385 -171 183 -62 275 -108 337 -169
178 -175 83 -411 -191 -476 -172 -40 -379 7 -562 129 -46 31 -91 56 -100 56
-19 0 -106 -129 -106 -157 0 -24 105 -103 198 -148 279 -137 633 -140 838 -7
161 105 243 267 231 457 -7 111 -36 182 -105 256 -103 112 -250 192 -495 273
-231 76 -332 137 -377 232 -59 121 6 263 153 330 51 23 80 29 158 32 122 5
228 -20 356 -84 50 -25 100 -44 109 -42 27 5 104 118 101 148 -2 21 -19 34
-107 78 -183 92 -408 130 -578 98z"/>
<path d="M1472 2488 c-16 -16 -18 -1853 -2 -1863 16 -10 190 -9 200 1 5 5 10
164 12 354 l3 345 26 56 c33 69 89 127 155 160 42 21 63 24 154 24 95 0 110
-3 156 -27 64 -34 137 -113 160 -176 16 -41 18 -91 22 -394 3 -293 6 -348 18
-348 18 -1 160 -1 179 0 13 0 15 46 15 353 0 381 -3 406 -56 516 -34 69 -158
195 -231 234 -65 34 -190 67 -258 67 -100 0 -227 -36 -300 -85 -20 -14 -38
-25 -40 -25 -3 0 -6 183 -7 408 l-3 407 -95 3 c-66 2 -99 -1 -108 -10z"/>
<path d="M3236 1775 c-292 -61 -493 -321 -473 -614 22 -329 297 -567 633 -548
217 12 408 135 499 322 53 106 69 182 62 295 -7 119 -34 199 -99 296 -132 197
-384 299 -622 249z m272 -227 c80 -30 180 -130 212 -213 77 -203 -36 -430
-247 -495 -151 -46 -290 -6 -401 115 -67 73 -95 145 -95 245 0 102 28 173 100
250 112 122 271 158 431 98z"/>
<path d="M4156 1774 c-8 -20 -8 -1728 0 -1748 5 -13 24 -16 105 -16 l98 0 6
32 c3 18 5 183 3 366 -2 182 -2 332 0 332 2 0 33 -18 70 -40 326 -197 753 -38
867 322 30 95 34 235 9 332 -48 188 -203 350 -389 409 -54 17 -94 22 -180 22
-132 0 -218 -23 -313 -84 -34 -23 -62 -37 -63 -33 -1 4 0 19 1 35 1 15 -1 41
-5 57 l-7 30 -98 0 c-80 0 -99 -3 -104 -16z m745 -231 c79 -36 148 -104 186
-181 25 -51 28 -68 28 -157 0 -93 -2 -105 -33 -167 -114 -231 -407 -285 -596
-109 -72 68 -108 147 -114 249 -5 100 8 153 58 231 100 155 303 213 471 134z"/>
<path d="M5964 1770 c-40 -10 -94 -30 -121 -43 -281 -143 -396 -514 -246 -799
70 -133 189 -233 338 -285 73 -25 93 -27 220 -27 189 0 312 35 433 124 61 46
62 65 6 149 -26 39 -52 71 -59 71 -7 0 -30 -14 -51 -31 -52 -42 -145 -86 -213
-100 -31 -6 -96 -9 -146 -7 -72 4 -103 11 -157 36 -103 47 -183 137 -213 240
l-6 22 436 0 436 0 26 26 c24 25 25 29 19 100 -14 156 -76 284 -186 388 -80
74 -144 110 -246 136 -95 25 -177 25 -270 0z m234 -208 c71 -23 139 -68 180
-119 27 -36 62 -95 62 -108 0 -3 -151 -5 -335 -5 -369 0 -353 -3 -319 62 26
50 95 118 146 144 92 47 173 54 266 26z"/>
<path d="M7304 1775 c-199 -43 -375 -216 -429 -421 -20 -76 -19 -229 1 -308
23 -88 70 -171 141 -246 71 -75 141 -121 245 -158 65 -23 88 -26 213 -26 163
-1 225 12 351 74 71 35 144 95 144 118 0 13 -85 135 -101 145 -11 7 -27 0 -64
-27 -97 -75 -191 -106 -315 -106 -130 1 -215 31 -300 107 -45 41 -110 146
-110 180 0 11 78 13 433 13 510 0 477 -7 477 102 0 355 -339 629 -686 553z
m264 -230 c84 -39 192 -153 192 -205 0 -7 -110 -10 -336 -10 l-335 0 6 23 c4
12 23 46 43 76 91 135 278 185 430 116z"/>
</g>
</svg>
